PathFileType	4	(X/Y/Z)	/Users/itak/Documents/Research/Walk-IL/dataset/trc/00285_00010.trc
DataRate	CameraRate	NumFrames	NumMarkers	Units	OrigDataRate	OrigDataStartFrame	OrigNumFrames
100.000000	100.000000	4	54	mm	100.000000	75	604
Frame#	Time	RPSI			LPSI			L3			STRN			T10			C7			CLAV			RBAK			LBAK			LSHO			LUPA			LAEL			LAOL			LWTS			LWPS			LFRA			LIFD			LHPS			LHTS			RSHO			RUPA			RAEL			RAOL			RWTS			RWPS			RFRA			RHTS			RHPS			RBHD			LFHD			RFHD			LBHD			LHIP			RASI			LASI			LKNE			LTHI			LANK			LTIP			LTOE			LMT1			LMT5			LHEE			RKNE			RTHI			RANK			RTIP			RTOE			RMT1			RMT5			RHEE			RIFD			RHIP			*53			
		X1	Y1	Z1	X2	Y2	Z2	X3	Y3	Z3	X4	Y4	Z4	X5	Y5	Z5	X6	Y6	Z6	X7	Y7	Z7	X8	Y8	Z8	X9	Y9	Z9	X10	Y10	Z10	X11	Y11	Z11	X12	Y12	Z12	X13	Y13	Z13	X14	Y14	Z14	X15	Y15	Z15	X16	Y16	Z16	X17	Y17	Z17	X18	Y18	Z18	X19	Y19	Z19	X20	Y20	Z20	X21	Y21	Z21	X22	Y22	Z22	X23	Y23	Z23	X24	Y24	Z24	X25	Y25	Z25	X26	Y26	Z26	X27	Y27	Z27	X28	Y28	Z28	X29	Y29	Z29	X30	Y30	Z30	X31	Y31	Z31	X32	Y32	Z32	X33	Y33	Z33	X34	Y34	Z34	X35	Y35	Z35	X36	Y36	Z36	X37	Y37	Z37	X38	Y38	Z38	X39	Y39	Z39	X40	Y40	Z40	X41	Y41	Z41	X42	Y42	Z42	X43	Y43	Z43	X44	Y44	Z44	X45	Y45	Z45	X46	Y46	Z46	X47	Y47	Z47	X48	Y48	Z48	X49	Y49	Z49	X50	Y50	Z50	X51	Y51	Z51	X52	Y52	Z52	X53	Y53	Z53	X54	Y54	Z54	

76	0.75	495.3417358398438	982.1764526367188	1089.630004882812	419.0382690429688	980.84521484375	930.59423828125	476.5711669921875	1053.818359375	1002.320068359375	697.9512939453125	1223.617065429688	883.8034057617188	466.1731567382812	1168.652587890625	1012.924865722656	495.9669799804688	1411.529541015625	967.7108154296875	639.1162719726562	1324.751342773438	904.2362670898438	489.6387939453125	1279.870849609375	1067.081787109375	431.3400573730469	1369.982055664062	887.7877197265625	486.9140930175781	1371.233642578125	800.9967041015625	430.9451293945312	1253.7724609375	747.3733520507812	441.1398620605469	1050.627075195312	724.0778198242188	408.4097595214844	1033.568359375	803.5219116210938	553.5133056640625	842.9452514648438	720.0316772460938	496.4668884277344	827.9739379882812	678.016357421875	459.4830627441406	951.6742553710938	706.2177124023438	578.3571166992188	657.8284301757812	704.1336669921875	511.9955749511719	739.9932861328125	671.6197509765625	576.6751098632812	749.276123046875	684.2283325195312	636.1900024414062	1396.734008789062	1074.559814453125	664.9623413085938	1340.868896484375	1139.21484375	687.7427978515625	1073.802490234375	1192.391357421875	615.2968139648438	1062.60693359375	1128.662109375	754.50146484375	845.8739624023438	1113.591186523438	744.837890625	845.7720947265625	1198.286010742188	713.980224609375	1008.012573242188	1194.04296875	791.4964599609375	731.141357421875	1126.5146484375	767.30029296875	734.8779907226562	1192.54248046875	587.5816040039062	1586.690673828125	989.7738647460938	610.1146240234375	1575.92138671875	778.7120971679688	679.687255859375	1585.495971679688	839.5384521484375	477.1167297363281	1560.484130859375	893.1848754882812	437.9606018066406	933.7054443359375	812.83837890625	706.0800170898438	930.7821044921875	1022.512817382812	583.782470703125	935.69091796875	801.934326171875	593.9017333984375	470.0646667480469	855.625732421875	550.9527587890625	606.1693115234375	817.7070922851562	538.8336181640625	43.26654434204102	974.2092895507812	568.8678588867188	240.8515167236328	906.5650024414062	757.0736694335938	34.7166633605957	964.3684692382812	700.9774169921875	26.04898262023926	1022.649597167969	653.0777587890625	41.29873657226562	923.5682373046875	515.2545166015625	33.42208099365234	1044.183715820312	762.1759033203125	482.2050170898438	1063.500610351562	716.4298095703125	732.4277954101562	1099.346069335938	479.2744445800781	196.9096984863281	1268.421630859375	713.4947509765625	374.8995971679688	1092.804565429688	552.044677734375	61.93715667724609	1141.255249023438	496.6141967773438	102.1533737182617	1134.0322265625	534.9786987304688	110.474006652832	1245.333129882812	423.9705200195312	238.2402648925781	1248.251220703125	760.0403442382812	661.4699096679688	1123.9140625	629.502685546875	926.8799438476562	1136.440063476562	nan	nan	nan	
77	0.76	504.5704345703125	982.4625854492188	1086.77880859375	424.6961364746094	980.9559326171875	929.611572265625	483.2809753417969	1053.740844726562	999.2172241210938	702.5191040039062	1224.40966796875	877.422119140625	472.4569091796875	1169.003295898438	1009.626770019531	502.1435546875	1412.115356445312	964.0901489257812	643.9847412109375	1325.459350585938	899.0040893554688	496.5003356933594	1280.1884765625	1063.385864257812	436.1995544433594	1370.65087890625	884.9248046875	490.6234436035156	1372.054077148438	797.5968017578125	435.3502807617188	1254.26708984375	743.8529663085938	449.3188171386719	1051.651977539062	718.951171875	416.0495300292969	1033.310791015625	797.8684692382812	565.7047729492188	846.1061401367188	713.34521484375	509.1279602050781	830.56689453125	671.0232543945312	469.7593383789062	953.3055419921875	700.3438110351562	593.4078979492188	661.4031982421875	695.9658813476562	526.1106567382812	742.9100952148438	663.8462524414062	590.5659790039062	753.030517578125	676.8905639648438	643.0717163085938	1396.8974609375	1069.637329101562	671.8934326171875	1341.233276367188	1134.106567382812	692.0943603515625	1074.778198242188	1189.85205078125	619.4299926757812	1063.517944335938	1126.223999023438	756.0599975585938	845.0352783203125	1114.328002929688	746.534912109375	846.3375854492188	1198.999633789062	717.6849975585938	1008.844543457031	1192.453369140625	791.6087646484375	730.0750122070312	1128.813110351562	767.568115234375	735.0438232421875	1194.8212890625	595.3648071289062	1587.168090820312	984.574951171875	615.0372314453125	1575.473388671875	773.2681274414062	685.5047607421875	1584.737426757812	833.1828002929688	483.383544921875	1561.433715820312	889.479736328125	440.7900085449219	933.7442626953125	811.300048828125	713.6701049804688	931.6895751953125	1014.6318359375	586.3383178710938	936.1569213867188	796.8908081054688	594.1602783203125	469.583251953125	854.1592407226562	552.0790405273438	605.7769775390625	816.0076293945312	538.8341674804688	43.2368278503418	974.28369140625	568.7879028320312	240.6823425292969	906.0968627929688	757.0445556640625	34.7153205871582	964.3095092773438	701.0040893554688	26.09132766723633	1022.609924316406	653.028076171875	41.24106979370117	923.4846801757812	515.1795043945312	33.60794830322266	1044.270751953125	777.029296875	485.3420715332031	1048.593017578125	728.4295043945312	734.7882690429688	1089.278686523438	509.9485473632812	189.1516418457031	1259.550048828125	731.758056640625	376.0037536621094	1078.034423828125	587.2352294921875	61.54248809814453	1128.120727539062	528.7335205078125	97.36403656005859	1123.075805664062	570.414794921875	107.179084777832	1233.328369140625	451.6724548339844	227.5404205322266	1241.859497070312	759.3580322265625	660.792236328125	1127.182983398438	640.06884765625	927.9117431640625	1130.4833984375	nan	nan	nan	
78	0.77	513.8613891601562	982.8222045898438	1083.80615234375	430.3964538574219	981.0698852539062	928.5918579101562	490.0440673828125	1053.711303710938	996.0859375	707.0203857421875	1225.198974609375	870.9529418945312	478.71826171875	1169.375610351562	1006.296020507812	508.2352294921875	1412.7177734375	960.390380859375	648.7955322265625	1326.157348632812	893.6845703125	503.3616638183594	1280.484619140625	1059.618408203125	441.053466796875	1371.301513671875	882.0077514648438	494.3106079101562	1372.8779296875	794.1450805664062	439.6890258789062	1254.72509765625	740.37646484375	457.299072265625	1052.791137695312	714.0882568359375	423.5268249511719	1033.137573242188	792.4072875976562	577.6859741210938	849.5695190429688	706.6548461914062	521.5250244140625	833.4125366210938	664.1492919921875	479.7940673828125	955.1199951171875	694.6788330078125	608.3099365234375	665.3477783203125	687.82470703125	539.9869995117188	746.1292114257812	656.2298583984375	604.2302856445312	757.118896484375	669.5376586914062	649.9263305664062	1397.087280273438	1064.591674804688	678.8700561523438	1341.656860351562	1128.86767578125	696.5062255859375	1075.918090820312	1187.27490234375	623.6354370117188	1064.5986328125	1123.762451171875	757.5732421875	844.4561767578125	1115.000122070312	748.1942749023438	847.0772705078125	1199.63037109375	721.3827514648438	1009.830932617188	1190.834228515625	791.5814208984375	729.2686157226562	1130.899047851562	767.68798828125	735.390625	1196.871215820312	603.0845947265625	1587.591186523438	979.3521728515625	619.9464721679688	1575.088012695312	767.8392333984375	691.2698364257812	1584.013061523438	826.8487548828125	489.609130859375	1562.380981445312	885.7489013671875	443.7028198242188	933.6962890625	809.8828125	721.2158813476562	932.6580810546875	1006.689392089844	588.8643188476562	936.5548095703125	791.92724609375	594.4342041015625	469.1053466796875	852.781005859375	553.2462158203125	605.3649291992188	814.4826049804688	538.835693359375	43.22126388549805	974.380126953125	568.7243041992188	240.5324401855469	905.7103881835938	757.0303955078125	34.71572875976562	964.2584838867188	701.0473022460938	26.09357833862305	1022.626892089844	652.9910888671875	41.20140838623047	923.4261474609375	515.0953369140625	33.79350662231445	1044.376220703125	790.9244384765625	488.545654296875	1033.803344726562	740.0485229492188	737.1721801757812	1079.151123046875	541.0421142578125	180.8102416992188	1249.468383789062	749.4410400390625	377.1914978027344	1063.214111328125	622.1856079101562	60.99347305297852	1113.607666015625	561.0226440429688	92.27650451660156	1110.817260742188	605.8969116210938	103.6528701782227	1219.9326171875	479.9497375488281	216.0020751953125	1234.389526367188	758.4901733398438	660.4534301757812	1130.108276367188	650.612060546875	929.0970458984375	1124.467407226562	nan	nan	nan	
79	0.78	523.2001342773438	983.2499389648438	1080.705200195312	436.1617736816406	981.1759033203125	927.5149536132812	496.8633422851562	1053.743041992188	992.9235229492188	711.47509765625	1225.963745117188	864.4053344726562	484.9694213867188	1169.773681640625	1002.911987304688	514.2500610351562	1413.322631835938	956.6024169921875	653.5696411132812	1326.822143554688	888.2814331054688	510.2240905761719	1280.761596679688	1055.76416015625	445.9047241210938	1371.935668945312	879.029541015625	498.0089416503906	1373.687622070312	790.630615234375	443.9907836914062	1255.144775390625	736.9319458007812	465.0603637695312	1054.019409179688	709.4610595703125	430.7779846191406	1033.046508789062	787.1034545898438	589.4246215820312	853.3407592773438	700.0156860351562	533.643310546875	836.5045166015625	657.3987426757812	489.5431823730469	957.0978393554688	689.205322265625	623.1482543945312	669.7112426757812	679.7168579101562	553.660400390625	749.6533813476562	648.7598266601562	617.6840209960938	761.5867919921875	662.2022705078125	656.7592163085938	1397.299926757812	1059.4140625	685.8936767578125	1342.133056640625	1123.494750976562	700.9638671875	1077.208251953125	1184.633666992188	627.89208984375	1065.84033203125	1121.27099609375	759.0759887695312	844.1201782226562	1115.580444335938	749.8268432617188	847.9873046875	1200.152465820312	725.0659790039062	1010.957580566406	1189.154907226562	791.4529418945312	728.7025146484375	1132.791259765625	767.6897583007812	735.9194946289062	1198.709350585938	610.7424926757812	1587.952270507812	974.104248046875	624.8419189453125	1574.76611328125	762.422119140625	696.9885864257812	1583.322021484375	820.5342407226562	495.7986450195312	1563.322875976562	881.9860229492188	446.7264404296875	933.5652465820312	808.5538330078125	728.7127685546875	933.6817016601562	998.696533203125	591.39013671875	936.872314453125	787.034912109375	594.7725219726562	468.6304931640625	851.470458984375	554.4899291992188	604.947509765625	813.1431274414062	538.8405151367188	43.22077178955078	974.491943359375	568.713623046875	240.4035339355469	905.388427734375	757.0343017578125	34.71821594238281	964.2168579101562	701.1043701171875	26.06570816040039	1022.684265136719	652.9664306640625	41.17827987670898	923.3900756835938	515.0252685546875	33.96865463256836	1044.501831054688	803.8704223632812	491.7584533691406	1019.23388671875	751.283447265625	739.53271484375	1068.993896484375	572.43212890625	171.9866790771484	1238.05810546875	766.5349731445312	378.4510498046875	1048.406494140625	656.6551513671875	60.34335708618164	1097.582641601562	593.2938232421875	87.05426788330078	1097.11572265625	641.1698608398438	99.89659881591797	1205.026245117188	508.7516784667969	203.7776794433594	1225.699951171875	757.4921875	660.4249267578125	1132.736328125	661.1117553710938	930.3883666992188	1118.379028320312	nan	nan	nan	
